<mxfile host="app.diagrams.net" modified="2023-11-09T22:42:12.658Z" agent="Mozilla/5.0 (Windows NT 10.0; Win64; x64) AppleWebKit/537.36 (KHTML, like Gecko) Chrome/119.0.0.0 Safari/537.36" etag="2DgG3QABvlWEt50zWofN" version="22.1.0" type="device">
  <diagram id="C5RBs43oDa-KdzZeNtuy" name="Page-1">
    <mxGraphModel dx="1434" dy="790" grid="1" gridSize="10" guides="1" tooltips="1" connect="1" arrows="1" fold="1" page="1" pageScale="1" pageWidth="827" pageHeight="1169" math="0" shadow="0">
      <root>
        <mxCell id="WIyWlLk6GJQsqaUBKTNV-0" />
        <mxCell id="WIyWlLk6GJQsqaUBKTNV-1" parent="WIyWlLk6GJQsqaUBKTNV-0" />
        <mxCell id="3ZlmwbHxQC8J75E6XUNI-1" value="1096 App" style="rounded=0;whiteSpace=wrap;html=1;" vertex="1" parent="WIyWlLk6GJQsqaUBKTNV-1">
          <mxGeometry x="250" y="320" width="120" height="60" as="geometry" />
        </mxCell>
        <mxCell id="3ZlmwbHxQC8J75E6XUNI-2" value="" style="shape=cylinder3;whiteSpace=wrap;html=1;boundedLbl=1;backgroundOutline=1;size=15;" vertex="1" parent="WIyWlLk6GJQsqaUBKTNV-1">
          <mxGeometry x="285" y="460" width="50" height="60" as="geometry" />
        </mxCell>
        <mxCell id="3ZlmwbHxQC8J75E6XUNI-5" value="" style="image;points=[];aspect=fixed;html=1;align=center;shadow=0;dashed=0;image=img/lib/allied_telesis/computer_and_terminals/Server_Desktop.svg;" vertex="1" parent="WIyWlLk6GJQsqaUBKTNV-1">
          <mxGeometry x="490" y="270" width="40" height="50.7" as="geometry" />
        </mxCell>
        <mxCell id="3ZlmwbHxQC8J75E6XUNI-6" style="edgeStyle=orthogonalEdgeStyle;rounded=0;orthogonalLoop=1;jettySize=auto;html=1;entryX=-0.023;entryY=0.481;entryDx=0;entryDy=0;entryPerimeter=0;" edge="1" parent="WIyWlLk6GJQsqaUBKTNV-1" source="3ZlmwbHxQC8J75E6XUNI-1" target="3ZlmwbHxQC8J75E6XUNI-5">
          <mxGeometry relative="1" as="geometry" />
        </mxCell>
        <mxCell id="3ZlmwbHxQC8J75E6XUNI-7" value="Quicken File (QDF)" style="edgeLabel;html=1;align=center;verticalAlign=middle;resizable=0;points=[];" vertex="1" connectable="0" parent="3ZlmwbHxQC8J75E6XUNI-6">
          <mxGeometry x="0.03" y="-1" relative="1" as="geometry">
            <mxPoint as="offset" />
          </mxGeometry>
        </mxCell>
        <mxCell id="3ZlmwbHxQC8J75E6XUNI-8" value="Quicken Automation" style="rounded=0;whiteSpace=wrap;html=1;" vertex="1" parent="WIyWlLk6GJQsqaUBKTNV-1">
          <mxGeometry x="450" y="390" width="120" height="40" as="geometry" />
        </mxCell>
        <mxCell id="3ZlmwbHxQC8J75E6XUNI-11" style="edgeStyle=orthogonalEdgeStyle;rounded=0;orthogonalLoop=1;jettySize=auto;html=1;" edge="1" parent="WIyWlLk6GJQsqaUBKTNV-1" source="3ZlmwbHxQC8J75E6XUNI-5" target="3ZlmwbHxQC8J75E6XUNI-8">
          <mxGeometry relative="1" as="geometry" />
        </mxCell>
        <mxCell id="3ZlmwbHxQC8J75E6XUNI-13" style="edgeStyle=orthogonalEdgeStyle;rounded=0;orthogonalLoop=1;jettySize=auto;html=1;entryX=0.425;entryY=1;entryDx=0;entryDy=0;entryPerimeter=0;" edge="1" parent="WIyWlLk6GJQsqaUBKTNV-1" source="3ZlmwbHxQC8J75E6XUNI-8" target="3ZlmwbHxQC8J75E6XUNI-1">
          <mxGeometry relative="1" as="geometry" />
        </mxCell>
        <mxCell id="3ZlmwbHxQC8J75E6XUNI-14" value="Text" style="edgeLabel;html=1;align=center;verticalAlign=middle;resizable=0;points=[];" vertex="1" connectable="0" parent="3ZlmwbHxQC8J75E6XUNI-13">
          <mxGeometry x="-0.0279" y="-2" relative="1" as="geometry">
            <mxPoint as="offset" />
          </mxGeometry>
        </mxCell>
      </root>
    </mxGraphModel>
  </diagram>
</mxfile>
